<?xml version="1.0" encoding="UTF-8"?><svg id="a" xmlns="http://www.w3.org/2000/svg" viewBox="0 0 226.31 217.93"><defs><style>.b{fill:#2772c3;}.c{fill:#fdd327;}</style></defs><g><polygon class="c" points="137.79 37.42 137.79 37.43 137.79 37.43 137.79 37.42"/><path class="b" d="M17.41,134.65c-3.11,6.79-4.87,13.32-5.77,17.38,3.53,0,7.42,0,11.43,0v-17.38h-5.65Z"/><path class="b" d="M94.5,119.2c13.07-3.24,25.51-10.95,33.69-21.22,.37-.47,.74-.93,1.1-1.4,11.65-15.34,13.82-36.99,7.19-55.28-8.28,22.46-27.37,39.73-50.68,45.59-14.17,4.51-27.48,10.18-39.23,17.47v6.78h30.76c2.13,0,3.86,1.73,3.86,3.86v15.79c0,2.13-1.73,3.86-3.86,3.86h-30.76v17.39c4.17,0,7.9,0,10.84,0,34.24,0,57.86-3.47,69.95-18.17,7.84-9.53,10.75-20.74,8.39-33.02-5.59,8.72-24.85,17.8-41.25,18.36Z"/><path class="c" d="M127.62,0s.02,.09,.04,.14v-.02s-.02-.08-.04-.12Z"/><path class="c" d="M23.06,80.38c0-2.13,1.73-3.86,3.86-3.86h15.79c2.13,0,3.86,1.73,3.86,3.86v23.99c11.75-7.29,25.06-12.96,39.23-17.47C118.82,73.43,137.67,34.46,127.66,.14c-13.26,25.26-37.33,41.17-58.91,47.13-14.42,3.99-21.47,5.76-28.26,8.76-21.87,10.45-31.53,24.9-35.68,41.96-1.03,4.23-1.71,8.63-2.17,13.16H23.06v-30.76Z"/><path class="c" d="M1.86,134.65c.06,5.67,.2,11.47,.28,17.39,2.64,0,5.89,0,9.49,0,.9-4.07,2.66-10.59,5.77-17.38H1.86Z"/></g><g><path class="b" d="M13.48,178.4c0,1.23-.37,2.15-1.1,2.73-.73,.59-1.84,.88-3.32,.88h-3.63v-12.41h7.32v1.28H6.88v4.02h1.93c1.09,0,1.98,.13,2.67,.38s1.19,.62,1.52,1.12c.33,.49,.49,1.16,.49,2Zm-6.61,2.37h2.03c1.08,0,1.86-.18,2.35-.55,.49-.37,.73-.97,.73-1.82s-.25-1.38-.75-1.72-1.37-.51-2.61-.51h-1.76v4.59Z"/><path class="b" d="M22.82,182.01h-1.43v-8.1h-2.79c-.15,2.02-.37,3.61-.64,4.8-.27,1.18-.62,2.05-1.06,2.6-.43,.55-.98,.82-1.65,.82-.31,0-.55-.03-.73-.1v-1.04c.12,.03,.27,.05,.42,.05,.65,0,1.17-.69,1.55-2.06,.38-1.38,.68-3.46,.87-6.27h5.44v9.31Z"/><path class="b" d="M31.53,182.01l-.28-1.32h-.07c-.46,.58-.93,.98-1.39,1.18s-1.04,.31-1.73,.31c-.92,0-1.65-.24-2.17-.71-.52-.48-.79-1.15-.79-2.03,0-1.88,1.5-2.86,4.51-2.96l1.58-.05v-.58c0-.73-.16-1.27-.47-1.62-.31-.35-.82-.52-1.51-.52-.78,0-1.65,.24-2.63,.71l-.43-1.08c.46-.25,.96-.44,1.51-.59,.55-.14,1.09-.21,1.64-.21,1.11,0,1.93,.25,2.47,.74,.54,.49,.8,1.28,.8,2.37v6.35h-1.04Zm-3.18-.99c.88,0,1.57-.24,2.07-.72,.5-.48,.75-1.15,.75-2.02v-.84l-1.41,.06c-1.12,.04-1.93,.21-2.42,.52-.5,.31-.74,.79-.74,1.44,0,.51,.15,.9,.46,1.16s.74,.4,1.29,.4Z"/><path class="b" d="M41.08,173.91h-4.19v8.1h-1.41v-9.31h5.6v1.21Z"/><path class="b" d="M50.96,177.35c0,1.52-.38,2.7-1.15,3.55s-1.82,1.28-3.17,1.28c-.83,0-1.57-.2-2.22-.59-.65-.39-1.14-.95-1.49-1.68-.35-.73-.53-1.58-.53-2.56,0-1.52,.38-2.7,1.14-3.55,.76-.85,1.81-1.27,3.16-1.27s2.34,.43,3.1,1.3,1.15,2.04,1.15,3.52Zm-7.09,0c0,1.19,.24,2.09,.71,2.72,.48,.62,1.17,.93,2.1,.93s1.62-.31,2.1-.93c.48-.62,.72-1.53,.72-2.72s-.24-2.08-.72-2.7c-.48-.61-1.18-.92-2.12-.92s-1.62,.3-2.09,.91c-.47,.61-.7,1.51-.7,2.71Z"/><path class="b" d="M61.51,185.23h-1.37v-3.22h-6.5v3.22h-1.36v-4.43h.73c.76-1.03,1.35-2.24,1.78-3.63,.43-1.39,.65-2.88,.67-4.47h4.71v8.09h1.33v4.43Zm-2.69-4.43v-6.98h-2.09c-.07,1.26-.32,2.53-.73,3.82-.41,1.29-.92,2.34-1.53,3.16h4.35Z"/><path class="b" d="M63.25,170.19c0-.32,.08-.56,.24-.71,.16-.15,.36-.23,.59-.23s.42,.08,.59,.23c.16,.15,.25,.39,.25,.7s-.08,.55-.25,.71c-.16,.16-.36,.23-.59,.23s-.44-.08-.59-.23c-.16-.16-.24-.39-.24-.71Zm1.53,11.83h-1.41v-9.31h1.41v9.31Z"/><path class="b" d="M69.09,172.71v5.9l-.06,1.55-.03,.48,5.04-7.93h1.76v9.31h-1.32v-5.69l.03-1.12,.04-1.1-5.03,7.91h-1.76v-9.31h1.32Zm2.66-1.23c-1.05,0-1.81-.2-2.29-.61-.48-.4-.75-1.07-.81-2h1.32c.05,.59,.21,1,.46,1.23,.26,.23,.71,.35,1.35,.35,.58,0,1.01-.12,1.29-.37,.28-.25,.45-.65,.51-1.21h1.33c-.07,.89-.35,1.55-.86,1.97-.5,.42-1.28,.63-2.32,.63Z"/><path class="b" d="M80.2,172.71v3.9h5.21v-3.9h1.41v9.31h-1.41v-4.19h-5.21v4.19h-1.41v-9.31h1.41Z"/><path class="b" d="M91.14,172.71v5.9l-.06,1.55-.03,.48,5.04-7.93h1.76v9.31h-1.32v-5.69l.03-1.12,.04-1.1-5.03,7.91h-1.76v-9.31h1.32Z"/><path class="b" d="M102.16,172.71v5.9l-.06,1.55-.03,.48,5.04-7.93h1.76v9.31h-1.32v-5.69l.03-1.12,.04-1.1-5.03,7.91h-1.76v-9.31h1.32Zm2.66-1.23c-1.05,0-1.81-.2-2.29-.61-.48-.4-.75-1.07-.81-2h1.32c.05,.59,.21,1,.46,1.23,.26,.23,.71,.35,1.35,.35,.58,0,1.01-.12,1.29-.37,.28-.25,.45-.65,.51-1.21h1.33c-.07,.89-.35,1.55-.86,1.97-.5,.42-1.28,.63-2.32,.63Z"/><path class="b" d="M121.08,169.42h1.46v1.53h.59c.97,0,1.81,.19,2.52,.58,.71,.39,1.25,.93,1.63,1.63,.38,.7,.56,1.5,.56,2.4s-.21,1.78-.63,2.51c-.42,.73-1,1.28-1.73,1.65-.73,.37-1.6,.55-2.59,.55h-.35v1.91h-1.46v-1.91h-.38c-1,0-1.86-.19-2.59-.56-.73-.37-1.3-.93-1.72-1.66-.41-.74-.62-1.56-.62-2.47s.19-1.69,.57-2.39c.38-.7,.93-1.25,1.64-1.64s1.55-.59,2.52-.59h.57v-1.53Zm0,2.77h-.48c-1.03,0-1.84,.3-2.43,.9-.59,.6-.89,1.42-.89,2.45,0,1.12,.31,1.98,.94,2.59,.63,.61,1.51,.92,2.66,.92h.2v-6.87Zm1.46,6.87h.21c1.14,0,2.02-.31,2.65-.93,.63-.62,.95-1.48,.95-2.59s-.29-1.87-.88-2.46c-.58-.59-1.4-.89-2.45-.89h-.49v6.87Z"/><path class="b" d="M138.28,177.35c0,1.52-.38,2.7-1.15,3.55s-1.82,1.28-3.17,1.28c-.83,0-1.57-.2-2.22-.59-.65-.39-1.14-.95-1.49-1.68-.35-.73-.53-1.58-.53-2.56,0-1.52,.38-2.7,1.14-3.55,.76-.85,1.81-1.27,3.16-1.27s2.34,.43,3.1,1.3,1.15,2.04,1.15,3.52Zm-7.09,0c0,1.19,.24,2.09,.71,2.72,.48,.62,1.17,.93,2.1,.93s1.62-.31,2.1-.93c.48-.62,.72-1.53,.72-2.72s-.24-2.08-.72-2.7c-.48-.61-1.18-.92-2.12-.92s-1.62,.3-2.09,.91c-.47,.61-.7,1.51-.7,2.71Z"/><path class="b" d="M142.16,172.71v3.9h5.21v-3.9h1.41v9.31h-1.41v-4.19h-5.21v4.19h-1.41v-9.31h1.41Z"/><path class="b" d="M159.86,185.23h-1.37v-3.22h-6.5v3.22h-1.36v-4.43h.73c.76-1.03,1.35-2.24,1.78-3.63,.43-1.39,.65-2.88,.67-4.47h4.71v8.09h1.33v4.43Zm-2.69-4.43v-6.98h-2.09c-.07,1.26-.32,2.53-.73,3.82-.41,1.29-.92,2.34-1.53,3.16h4.35Z"/></g><g><path class="b" d="M13.78,211.51l-.94-3.58H6.64l-.97,3.58H0l6.23-19.18h6.88l6.31,19.18h-5.64Zm-2.01-7.81l-.82-3.14c-.19-.7-.42-1.6-.7-2.7s-.46-1.9-.54-2.38c-.08,.44-.23,1.18-.46,2.19-.23,1.02-.74,3.03-1.54,6.02h4.06Z"/><path class="b" d="M26.3,196.71v5.33h4.05v-5.33h5.11v14.8h-5.11v-5.67h-4.05v5.67h-5.11v-14.8h5.11Z"/><path class="b" d="M49.98,196.71v3.8h-5.89v11h-5.11v-14.8h11Z"/><path class="b" d="M59.54,211.77c-2.46,0-4.38-.66-5.74-1.97-1.36-1.31-2.04-3.18-2.04-5.6s.63-4.42,1.89-5.75c1.26-1.34,3.07-2.01,5.41-2.01s3.95,.58,5.17,1.74c1.21,1.16,1.82,2.84,1.82,5.02v2.27h-9.13c.03,.83,.34,1.48,.91,1.95s1.35,.71,2.33,.71c.9,0,1.72-.08,2.48-.25,.75-.17,1.57-.46,2.45-.87v3.67c-.8,.41-1.63,.69-2.48,.85-.85,.16-1.87,.23-3.06,.23Zm-.3-11.85c-.6,0-1.1,.19-1.51,.57s-.64,.97-.71,1.78h4.39c-.02-.71-.22-1.28-.61-1.71-.39-.43-.91-.64-1.56-.64Z"/><path class="b" d="M83.78,211.51h-5.11v-11h-3c-.29,3.18-.65,5.52-1.08,7.01s-1.04,2.58-1.8,3.25c-.77,.67-1.8,1.01-3.1,1.01-.91,0-1.68-.13-2.31-.39v-3.8c.29,.16,.67,.24,1.15,.24,.39,0,.71-.2,.95-.61,.24-.41,.46-1.05,.65-1.94,.19-.89,.36-2.03,.51-3.42,.15-1.39,.3-3.1,.44-5.13h12.71v14.8Z"/><path class="b" d="M91.86,196.71v3.72c0,.21,0,.44,0,.68,0,.24-.06,1.79-.18,4.65l5.92-9.05h5.64v14.8h-4.55v-4.01c0-1.4,.06-3.06,.18-4.98l-5.89,8.99h-5.67v-14.8h4.55Z"/><path class="b" d="M116.47,211.77c-1.22,0-2.33-.13-3.34-.39v-4.1c.82,.32,1.85,.48,3.11,.48,.54,0,1-.12,1.37-.37,.37-.25,.67-.69,.91-1.31l-6.23-13.67h5.57l2.35,5.83c.09,.23,.19,.5,.32,.81,.13,.31,.25,.64,.37,.97,.12,.34,.24,.67,.34,1s.19,.62,.25,.86h.18c.3-1.18,.74-2.57,1.32-4.15l1.95-5.32h5.57l-5.8,13.4c-.72,1.67-1.43,2.9-2.13,3.69s-1.53,1.36-2.5,1.72-2.17,.54-3.59,.54Z"/><path class="b" d="M142.3,196.71h5.64l-5.54,7.09,5.97,7.71h-5.84l-5.49-7.51v7.51h-5.11v-14.8h5.11v7.17l5.25-7.17Z"/><path class="b" d="M158.9,211.77c-.75,0-1.42-.12-2.01-.37-.59-.25-1.18-.69-1.76-1.34h-.24c.16,1.04,.24,1.68,.24,1.93v5.94h-5.11v-21.23h4.15l.72,1.88h.24c.95-1.43,2.26-2.14,3.93-2.14s2.92,.68,3.85,2.04c.93,1.36,1.4,3.22,1.4,5.59s-.49,4.27-1.46,5.64-2.29,2.06-3.95,2.06Zm-1.71-11.31c-.75,0-1.27,.27-1.57,.8s-.46,1.33-.49,2.38v.4c0,1.27,.17,2.19,.51,2.76,.34,.57,.88,.85,1.61,.85,.65,0,1.13-.28,1.42-.84,.3-.56,.44-1.49,.44-2.79s-.15-2.18-.44-2.74c-.3-.55-.79-.83-1.48-.83Z"/><path class="b" d="M176.88,211.51l-.98-1.96h-.1c-.69,.85-1.39,1.44-2.1,1.75-.71,.31-1.64,.47-2.77,.47-1.39,0-2.49-.42-3.29-1.25-.8-.84-1.2-2.01-1.2-3.53s.55-2.75,1.65-3.52c1.1-.77,2.69-1.2,4.77-1.3l2.47-.08v-.21c0-1.22-.6-1.83-1.8-1.83-1.08,0-2.45,.37-4.12,1.1l-1.48-3.37c1.72-.89,3.9-1.33,6.53-1.33,1.9,0,3.37,.47,4.41,1.41,1.04,.94,1.56,2.26,1.56,3.95v9.71h-3.54Zm-3.79-3.34c.62,0,1.15-.2,1.59-.59,.44-.39,.66-.9,.66-1.53v-1.15l-1.18,.05c-1.68,.06-2.52,.68-2.52,1.86,0,.91,.48,1.36,1.45,1.36Z"/><path class="b" d="M181.18,193.05c0-.65,.2-1.16,.6-1.52,.4-.36,.94-.54,1.62-.54s1.23,.19,1.64,.56c.41,.37,.61,.87,.61,1.51s-.2,1.11-.61,1.48c-.4,.37-.95,.56-1.64,.56s-1.22-.18-1.62-.54c-.4-.36-.6-.86-.6-1.5Zm7.85,18.46h-5.11v-14.8h5.11v14.8Zm-1.59-18.46c0-.65,.2-1.16,.6-1.52,.4-.36,.95-.54,1.65-.54s1.25,.19,1.65,.56c.4,.37,.61,.88,.61,1.5s-.2,1.11-.61,1.48c-.41,.37-.96,.56-1.65,.56s-1.26-.18-1.65-.54c-.4-.36-.59-.86-.59-1.5Z"/><path class="b" d="M197.71,196.71v5.33h4.05v-5.33h5.11v14.8h-5.11v-5.67h-4.05v5.67h-5.11v-14.8h5.11Z"/><path class="b" d="M214.94,196.71v3.72c0,.21,0,.44,0,.68,0,.24-.06,1.79-.18,4.65l5.92-9.05h5.64v14.8h-4.55v-4.01c0-1.4,.06-3.06,.18-4.98l-5.89,8.99h-5.67v-14.8h4.55Z"/></g></svg>