<?xml version="1.0" encoding="UTF-8"?><svg id="a" xmlns="http://www.w3.org/2000/svg" viewBox="0 0 383.96 159.04"><defs><style>.b{fill:#2772c3;}.c{fill:#fdd327;}</style></defs><g><polygon class="c" points="135.92 37.42 135.92 37.43 135.93 37.43 135.92 37.42"/><path class="b" d="M15.55,134.65c-3.11,6.79-4.87,13.32-5.77,17.38,3.53,0,7.42,0,11.43,0v-17.38h-5.65Z"/><path class="b" d="M92.64,119.2c13.07-3.24,25.51-10.95,33.69-21.22,.37-.47,.74-.93,1.1-1.4,11.65-15.34,13.82-36.99,7.19-55.28-8.28,22.46-27.37,39.73-50.68,45.59-14.17,4.51-27.48,10.18-39.23,17.47v6.78h30.76c2.13,0,3.86,1.73,3.86,3.86v15.79c0,2.13-1.73,3.86-3.86,3.86h-30.76v17.39c4.17,0,7.9,0,10.84,0,34.24,0,57.86-3.47,69.95-18.17,7.84-9.53,10.75-20.74,8.39-33.02-5.59,8.72-24.85,17.8-41.25,18.36Z"/><path class="c" d="M125.76,0s.02,.09,.04,.14v-.02s-.02-.08-.04-.12Z"/><path class="c" d="M21.2,80.38c0-2.13,1.73-3.86,3.86-3.86h15.79c2.13,0,3.86,1.73,3.86,3.86v23.99c11.75-7.29,25.06-12.96,39.23-17.47C116.96,73.43,135.81,34.46,125.79,.14c-13.26,25.26-37.33,41.17-58.91,47.13-14.42,3.99-21.47,5.76-28.26,8.76C16.75,66.48,7.1,80.93,2.95,97.99c-1.03,4.23-1.71,8.63-2.17,13.16H21.2v-30.76Z"/><path class="c" d="M0,134.65c.06,5.67,.2,11.47,.28,17.39,2.64,0,5.89,0,9.49,0,.9-4.07,2.66-10.59,5.77-17.38H0Z"/></g><g><path class="b" d="M158.78,111.82c-1.36,0-2.44,.45-3.23,1.36s-1.18,2.15-1.18,3.73,.38,2.88,1.14,3.77c.76,.89,1.85,1.33,3.26,1.33,.87,0,1.85-.16,2.96-.47v1.27c-.86,.32-1.92,.48-3.18,.48-1.83,0-3.24-.55-4.23-1.67-.99-1.11-1.49-2.69-1.49-4.73,0-1.28,.24-2.4,.72-3.36s1.17-1.7,2.07-2.22,1.97-.78,3.19-.78c1.3,0,2.44,.24,3.41,.71l-.61,1.24c-.94-.44-1.88-.66-2.82-.66Z"/><path class="b" d="M170.59,123.12v-6.02c0-.76-.17-1.33-.52-1.7-.35-.37-.89-.56-1.62-.56-.98,0-1.69,.27-2.14,.8-.45,.53-.68,1.4-.68,2.62v4.87h-1.41v-13.21h1.41v4c0,.48-.02,.88-.07,1.2h.08c.28-.45,.67-.8,1.18-1.06,.51-.26,1.1-.39,1.75-.39,1.14,0,1.99,.27,2.56,.81,.57,.54,.85,1.4,.85,2.58v6.07h-1.41Z"/><path class="b" d="M180.62,123.12l-.28-1.33h-.07c-.46,.58-.93,.98-1.39,1.18-.46,.21-1.04,.31-1.73,.31-.92,0-1.65-.24-2.17-.71-.52-.48-.79-1.15-.79-2.03,0-1.88,1.5-2.86,4.51-2.96l1.58-.05v-.58c0-.73-.16-1.27-.47-1.62-.31-.35-.82-.52-1.51-.52-.78,0-1.65,.24-2.63,.71l-.43-1.08c.46-.25,.96-.44,1.51-.59s1.09-.21,1.64-.21c1.11,0,1.93,.25,2.47,.74,.54,.49,.8,1.28,.8,2.37v6.35h-1.04Zm-3.18-.99c.88,0,1.57-.24,2.07-.72,.5-.48,.75-1.15,.75-2.02v-.84l-1.41,.06c-1.12,.04-1.93,.21-2.42,.52s-.74,.79-.74,1.44c0,.51,.15,.9,.46,1.16,.31,.27,.74,.4,1.29,.4Z"/><path class="b" d="M188.81,113.64c.41,0,.78,.03,1.11,.1l-.2,1.31c-.38-.08-.72-.13-1.02-.13-.75,0-1.4,.31-1.93,.92-.54,.61-.8,1.37-.8,2.28v4.99h-1.41v-9.31h1.16l.16,1.72h.07c.34-.61,.76-1.07,1.25-1.4,.49-.33,1.02-.49,1.6-.49Z"/><path class="b" d="M191.55,111.29c0-.32,.08-.56,.24-.71,.16-.15,.36-.22,.59-.22s.42,.08,.59,.23c.16,.15,.25,.39,.25,.7s-.08,.55-.25,.71c-.16,.16-.36,.23-.59,.23s-.44-.08-.59-.23c-.16-.16-.24-.39-.24-.71Zm1.53,11.83h-1.41v-9.31h1.41v9.31Z"/><path class="b" d="M199.07,122.13c.25,0,.49-.02,.72-.05s.42-.08,.55-.11v1.08c-.15,.07-.38,.13-.67,.18-.3,.05-.56,.07-.8,.07-1.8,0-2.7-.95-2.7-2.84v-5.54h-1.33v-.68l1.33-.59,.59-1.99h.82v2.16h2.7v1.1h-2.7v5.48c0,.56,.13,.99,.4,1.29,.27,.3,.63,.45,1.1,.45Z"/><path class="b" d="M207.93,123.12l-.28-1.33h-.07c-.46,.58-.93,.98-1.39,1.18-.46,.21-1.04,.31-1.73,.31-.92,0-1.65-.24-2.17-.71s-.79-1.15-.79-2.03c0-1.88,1.5-2.86,4.51-2.96l1.58-.05v-.58c0-.73-.16-1.27-.47-1.62-.31-.35-.82-.52-1.51-.52-.78,0-1.65,.24-2.63,.71l-.43-1.08c.46-.25,.96-.44,1.51-.59,.55-.14,1.09-.21,1.64-.21,1.11,0,1.93,.25,2.47,.74s.8,1.28,.8,2.37v6.35h-1.04Zm-3.18-.99c.88,0,1.57-.24,2.07-.72,.5-.48,.75-1.15,.75-2.02v-.84l-1.41,.06c-1.12,.04-1.93,.21-2.42,.52-.5,.31-.74,.79-.74,1.44,0,.51,.15,.9,.46,1.16,.31,.27,.74,.4,1.29,.4Z"/><path class="b" d="M216.21,113.66c1.22,0,2.17,.42,2.85,1.25,.68,.83,1.01,2.02,1.01,3.54s-.34,2.72-1.02,3.56c-.68,.85-1.63,1.27-2.84,1.27-.61,0-1.16-.11-1.66-.34s-.92-.57-1.26-1.03h-.1l-.3,1.2h-1.01v-13.21h1.41v3.21c0,.72-.02,1.36-.07,1.94h.07c.66-.93,1.63-1.39,2.92-1.39Zm-.2,1.18c-.96,0-1.66,.28-2.08,.83-.42,.55-.64,1.48-.64,2.79s.22,2.24,.65,2.81,1.13,.84,2.1,.84c.87,0,1.51-.32,1.94-.95,.42-.63,.64-1.54,.64-2.72s-.21-2.11-.64-2.71-1.08-.89-1.97-.89Z"/><path class="b" d="M223.94,123.12h-1.41v-13.21h1.41v13.21Z"/><path class="b" d="M230.86,123.29c-1.38,0-2.46-.42-3.26-1.26-.8-.84-1.19-2-1.19-3.49s.37-2.69,1.11-3.58c.74-.88,1.73-1.32,2.98-1.32,1.17,0,2.09,.38,2.77,1.15,.68,.77,1.02,1.78,1.02,3.04v.89h-6.41c.03,1.09,.3,1.92,.83,2.49,.52,.57,1.26,.85,2.21,.85,1,0,1.99-.21,2.97-.63v1.26c-.5,.22-.97,.37-1.41,.46-.44,.09-.98,.14-1.61,.14Zm-.38-8.47c-.75,0-1.34,.24-1.79,.73-.44,.49-.71,1.16-.79,2.02h4.87c0-.89-.2-1.57-.59-2.04s-.96-.71-1.7-.71Z"/><path class="b" d="M242.86,123.12h-1.44v-12.42h6.92v1.28h-5.48v4.54h5.15v1.28h-5.15v5.31Z"/><path class="b" d="M258.21,118.46c0,1.52-.38,2.7-1.15,3.55-.76,.85-1.82,1.28-3.17,1.28-.83,0-1.57-.2-2.22-.59s-1.14-.95-1.49-1.68c-.35-.73-.53-1.58-.53-2.56,0-1.52,.38-2.7,1.14-3.54s1.81-1.27,3.16-1.27,2.34,.43,3.1,1.3c.77,.87,1.15,2.04,1.15,3.52Zm-7.09,0c0,1.19,.24,2.09,.71,2.72,.48,.62,1.17,.93,2.1,.93s1.62-.31,2.1-.93,.72-1.53,.72-2.72-.24-2.08-.72-2.7c-.48-.61-1.18-.92-2.12-.92s-1.62,.3-2.09,.91c-.47,.61-.71,1.51-.71,2.71Z"/><path class="b" d="M262.01,113.81v6.04c0,.76,.17,1.33,.52,1.7,.35,.37,.89,.56,1.62,.56,.97,0,1.69-.27,2.14-.8s.67-1.4,.67-2.61v-4.89h1.41v9.31h-1.16l-.2-1.25h-.08c-.29,.46-.69,.81-1.2,1.05s-1.1,.37-1.75,.37c-1.13,0-1.98-.27-2.54-.81-.56-.54-.84-1.4-.84-2.58v-6.09h1.43Z"/><path class="b" d="M277.73,123.12v-6.02c0-.76-.17-1.33-.52-1.7-.35-.37-.89-.56-1.62-.56-.97,0-1.69,.26-2.14,.79-.45,.53-.68,1.4-.68,2.61v4.88h-1.41v-9.31h1.15l.23,1.27h.07c.29-.46,.69-.81,1.21-1.07s1.1-.38,1.74-.38c1.12,0,1.96,.27,2.53,.81,.57,.54,.85,1.41,.85,2.59v6.07h-1.41Z"/><path class="b" d="M288.37,121.87h-.08c-.65,.95-1.62,1.42-2.92,1.42-1.22,0-2.16-.42-2.84-1.25-.68-.83-1.01-2.01-1.01-3.55s.34-2.73,1.02-3.58c.68-.85,1.62-1.27,2.84-1.27s2.23,.46,2.9,1.38h.11l-.06-.67-.03-.65v-3.79h1.41v13.21h-1.15l-.19-1.25Zm-2.82,.24c.96,0,1.66-.26,2.09-.79,.43-.52,.65-1.37,.65-2.54v-.3c0-1.32-.22-2.26-.66-2.82-.44-.56-1.14-.84-2.1-.84-.83,0-1.46,.32-1.9,.96-.44,.64-.66,1.55-.66,2.72s.22,2.09,.65,2.69c.44,.61,1.08,.91,1.92,.91Z"/><path class="b" d="M298.41,123.12l-.28-1.33h-.07c-.46,.58-.93,.98-1.39,1.18-.46,.21-1.04,.31-1.73,.31-.92,0-1.65-.24-2.17-.71s-.79-1.15-.79-2.03c0-1.88,1.5-2.86,4.51-2.96l1.58-.05v-.58c0-.73-.16-1.27-.47-1.62-.31-.35-.82-.52-1.51-.52-.78,0-1.65,.24-2.63,.71l-.43-1.08c.46-.25,.96-.44,1.51-.59,.55-.14,1.09-.21,1.64-.21,1.11,0,1.93,.25,2.47,.74s.8,1.28,.8,2.37v6.35h-1.04Zm-3.18-.99c.88,0,1.57-.24,2.07-.72,.5-.48,.75-1.15,.75-2.02v-.84l-1.41,.06c-1.12,.04-1.93,.21-2.42,.52-.5,.31-.74,.79-.74,1.44,0,.51,.15,.9,.46,1.16,.31,.27,.74,.4,1.29,.4Z"/><path class="b" d="M305.37,122.13c.25,0,.49-.02,.72-.05,.23-.04,.42-.08,.55-.11v1.08c-.15,.07-.38,.13-.67,.18-.3,.05-.57,.07-.8,.07-1.8,0-2.7-.95-2.7-2.84v-5.54h-1.33v-.68l1.33-.59,.59-1.99h.81v2.16h2.7v1.1h-2.7v5.48c0,.56,.13,.99,.4,1.29,.27,.3,.63,.45,1.1,.45Z"/><path class="b" d="M308.38,111.29c0-.32,.08-.56,.24-.71,.16-.15,.36-.22,.59-.22s.42,.08,.59,.23c.17,.15,.25,.39,.25,.7s-.08,.55-.25,.71c-.16,.16-.36,.23-.59,.23s-.44-.08-.59-.23c-.16-.16-.24-.39-.24-.71Zm1.53,11.83h-1.41v-9.31h1.41v9.31Z"/><path class="b" d="M320.93,118.46c0,1.52-.38,2.7-1.15,3.55-.76,.85-1.82,1.28-3.17,1.28-.83,0-1.57-.2-2.22-.59s-1.14-.95-1.49-1.68c-.35-.73-.53-1.58-.53-2.56,0-1.52,.38-2.7,1.14-3.54s1.81-1.27,3.16-1.27,2.34,.43,3.1,1.3c.77,.87,1.15,2.04,1.15,3.52Zm-7.09,0c0,1.19,.24,2.09,.71,2.72,.48,.62,1.17,.93,2.1,.93s1.62-.31,2.1-.93,.72-1.53,.72-2.72-.24-2.08-.72-2.7c-.48-.61-1.18-.92-2.12-.92s-1.62,.3-2.09,.91c-.47,.61-.71,1.51-.71,2.71Z"/><path class="b" d="M329.77,123.12v-6.02c0-.76-.17-1.33-.52-1.7-.35-.37-.89-.56-1.62-.56-.97,0-1.69,.26-2.14,.79s-.68,1.4-.68,2.61v4.88h-1.41v-9.31h1.15l.23,1.27h.07c.29-.46,.69-.81,1.21-1.07,.52-.25,1.1-.38,1.74-.38,1.12,0,1.96,.27,2.53,.81,.57,.54,.85,1.41,.85,2.59v6.07h-1.41Z"/></g><g><path class="b" d="M166.33,133.52v11.5c0,2.5-.71,4.44-2.12,5.81-1.42,1.37-3.46,2.06-6.12,2.06s-4.61-.67-6-2c-1.4-1.33-2.1-3.25-2.1-5.75v-11.61h5.19v11.21c0,1.35,.25,2.33,.76,2.94,.51,.61,1.25,.92,2.23,.92,1.05,0,1.82-.3,2.29-.91s.71-1.6,.71-2.97v-11.18h5.16Z"/><path class="b" d="M175,144.3c.62-.98,1.15-1.75,1.58-2.3l3.32-4.18h5.7l-5.13,6.3,5.46,8.5h-5.84l-3.24-5.3-1.66,1.27v4.04h-5.13v-20.33h5.13v8c0,1.37-.1,2.7-.29,4.01h.1Z"/><path class="b" d="M196.62,137.55c.44,0,.87,.04,1.27,.1l.29,.05-.46,4.82c-.42-.1-1-.16-1.74-.16-1.11,0-1.92,.25-2.43,.76s-.76,1.24-.76,2.2v7.28h-5.11v-14.8h3.8l.8,2.37h.25c.43-.78,1.02-1.42,1.78-1.9,.76-.48,1.53-.72,2.31-.72Z"/><path class="b" d="M209.89,152.62l-.98-1.96h-.1c-.69,.85-1.39,1.44-2.1,1.75-.71,.31-1.64,.47-2.77,.47-1.39,0-2.49-.42-3.29-1.25-.8-.84-1.2-2.01-1.2-3.53s.55-2.75,1.65-3.52c1.1-.77,2.69-1.2,4.77-1.3l2.47-.08v-.21c0-1.22-.6-1.83-1.8-1.83-1.08,0-2.45,.37-4.12,1.1l-1.48-3.37c1.72-.89,3.9-1.33,6.53-1.33,1.9,0,3.37,.47,4.41,1.41,1.04,.94,1.56,2.26,1.56,3.95v9.71h-3.54Zm-3.79-3.34c.62,0,1.15-.2,1.59-.59,.44-.39,.66-.9,.66-1.53v-1.15l-1.18,.05c-1.68,.06-2.52,.68-2.52,1.86,0,.91,.48,1.36,1.45,1.36Z"/><path class="b" d="M216.8,134.13c0-.77,.21-1.34,.64-1.71,.43-.37,1.12-.56,2.06-.56s1.64,.19,2.08,.58c.44,.38,.65,.95,.65,1.7,0,1.5-.91,2.25-2.73,2.25s-2.7-.75-2.7-2.25Zm5.24,18.49h-5.11v-14.8h5.11v14.8Z"/><path class="b" d="M234.95,152.62v-8.07c0-.98-.14-1.73-.42-2.23s-.74-.75-1.37-.75c-.86,0-1.48,.34-1.87,1.03-.38,.69-.57,1.87-.57,3.54v6.48h-5.11v-14.8h3.85l.64,1.83h.3c.43-.7,1.04-1.22,1.81-1.57,.77-.35,1.66-.52,2.66-.52,1.64,0,2.91,.47,3.82,1.42s1.37,2.29,1.37,4.01v9.63h-5.11Z"/><path class="b" d="M243.43,134.13c0-.77,.21-1.34,.64-1.71,.43-.37,1.11-.56,2.06-.56s1.64,.19,2.08,.58c.44,.38,.65,.95,.65,1.7,0,1.5-.91,2.25-2.73,2.25s-2.71-.75-2.71-2.25Zm5.24,18.49h-5.11v-14.8h5.11v14.8Z"/><path class="b" d="M261.89,152.62l-.98-1.96h-.1c-.69,.85-1.39,1.44-2.1,1.75-.71,.31-1.64,.47-2.77,.47-1.39,0-2.49-.42-3.29-1.25-.8-.84-1.2-2.01-1.2-3.53s.55-2.75,1.65-3.52c1.1-.77,2.69-1.2,4.77-1.3l2.47-.08v-.21c0-1.22-.6-1.83-1.8-1.83-1.08,0-2.45,.37-4.12,1.1l-1.48-3.37c1.72-.89,3.9-1.33,6.53-1.33,1.9,0,3.37,.47,4.41,1.41,1.04,.94,1.56,2.26,1.56,3.95v9.71h-3.54Zm-3.79-3.34c.62,0,1.15-.2,1.59-.59,.44-.39,.66-.9,.66-1.53v-1.15l-1.18,.05c-1.68,.06-2.52,.68-2.52,1.86,0,.91,.48,1.36,1.45,1.36Z"/><path class="b" d="M278.24,152.62v-8.07c0-.98-.14-1.73-.42-2.23s-.74-.75-1.37-.75c-.86,0-1.48,.34-1.87,1.03-.38,.69-.57,1.87-.57,3.54v6.48h-5.11v-14.8h3.85l.64,1.83h.3c.43-.7,1.04-1.22,1.81-1.57,.77-.35,1.66-.52,2.66-.52,1.64,0,2.91,.47,3.82,1.42s1.37,2.29,1.37,4.01v9.63h-5.11Z"/><path class="b" d="M305.8,152.62l-.94-3.58h-6.21l-.97,3.58h-5.67l6.23-19.18h6.88l6.31,19.18h-5.64Zm-2.01-7.81l-.82-3.14c-.19-.7-.42-1.6-.7-2.7-.27-1.11-.46-1.9-.54-2.38-.08,.44-.23,1.18-.46,2.19-.23,1.02-.74,3.03-1.54,6.02h4.06Z"/><path class="b" d="M322.55,152.62v-8.07c0-.98-.14-1.73-.42-2.23s-.74-.75-1.37-.75c-.86,0-1.48,.34-1.87,1.03-.38,.69-.57,1.87-.57,3.54v6.48h-5.11v-14.8h3.85l.64,1.83h.3c.43-.7,1.04-1.22,1.81-1.57,.77-.35,1.66-.52,2.66-.52,1.64,0,2.91,.47,3.82,1.42s1.37,2.29,1.37,4.01v9.63h-5.11Z"/><path class="b" d="M345.1,137.81v2.47l-2.02,.74c.28,.51,.42,1.09,.42,1.76,0,1.59-.56,2.83-1.68,3.71s-2.79,1.32-5.01,1.32c-.55,0-.98-.04-1.31-.1-.12,.23-.18,.44-.18,.64,0,.25,.21,.45,.61,.58s.95,.2,1.61,.2h2.46c3.32,0,4.98,1.4,4.98,4.19,0,1.8-.77,3.21-2.31,4.21-1.54,1-3.69,1.5-6.47,1.5-2.1,0-3.72-.35-4.85-1.05s-1.71-1.71-1.71-3.02c0-1.77,1.1-2.91,3.29-3.42-.45-.19-.85-.5-1.18-.93-.33-.43-.5-.85-.5-1.27,0-.46,.13-.87,.38-1.22,.25-.35,.78-.77,1.58-1.26-.77-.34-1.37-.87-1.81-1.59-.44-.72-.66-1.6-.66-2.64,0-1.61,.55-2.86,1.65-3.75,1.1-.89,2.67-1.33,4.7-1.33,.27,0,.74,.03,1.4,.09,.66,.06,1.15,.12,1.46,.17h5.16Zm-11.16,16.64c0,.42,.23,.76,.68,1.01s1.06,.39,1.82,.39c1.24,0,2.23-.16,2.97-.46,.75-.31,1.12-.71,1.12-1.2,0-.39-.23-.67-.68-.83-.45-.16-1.1-.24-1.95-.24h-2c-.55,0-1.01,.13-1.39,.39-.38,.26-.57,.57-.57,.95Zm1.61-11.8c0,1.52,.53,2.27,1.58,2.27,.49,0,.86-.19,1.13-.56,.27-.37,.4-.94,.4-1.69,0-1.53-.51-2.3-1.53-2.3s-1.58,.76-1.58,2.27Z"/><path class="b" d="M354.49,152.88c-2.46,0-4.38-.66-5.74-1.97-1.36-1.31-2.04-3.18-2.04-5.6s.63-4.42,1.89-5.75c1.26-1.34,3.07-2,5.41-2s3.95,.58,5.17,1.74c1.21,1.16,1.82,2.84,1.82,5.02v2.27h-9.13c.04,.83,.34,1.48,.91,1.95,.57,.47,1.35,.71,2.33,.71,.9,0,1.72-.08,2.48-.25,.75-.17,1.57-.46,2.45-.87v3.67c-.8,.41-1.63,.69-2.48,.85-.85,.16-1.87,.23-3.06,.23Zm-.3-11.85c-.6,0-1.1,.19-1.51,.57-.4,.38-.64,.97-.71,1.78h4.39c-.02-.71-.22-1.28-.61-1.71s-.91-.64-1.56-.64Z"/><path class="b" d="M368.99,152.62h-5.11v-20.33h5.11v20.33Z"/><path class="b" d="M383.96,148.07c0,1.59-.54,2.78-1.62,3.59-1.08,.81-2.63,1.21-4.65,1.21-1.1,0-2.05-.06-2.86-.18-.81-.12-1.64-.33-2.48-.65v-4.09c.79,.35,1.66,.64,2.61,.86s1.79,.34,2.53,.34c1.11,0,1.66-.25,1.66-.76,0-.26-.16-.49-.46-.7-.31-.2-1.21-.6-2.7-1.2-1.36-.56-2.31-1.19-2.85-1.9s-.81-1.61-.81-2.7c0-1.38,.53-2.45,1.59-3.21s2.57-1.15,4.51-1.15c.98,0,1.89,.11,2.75,.32,.86,.21,1.75,.52,2.67,.93l-1.38,3.29c-.68-.3-1.4-.56-2.16-.78-.76-.21-1.38-.32-1.85-.32-.84,0-1.25,.2-1.25,.61,0,.25,.15,.47,.44,.65,.29,.18,1.13,.54,2.53,1.09,1.04,.43,1.81,.84,2.32,1.25,.51,.41,.88,.89,1.12,1.44,.24,.55,.36,1.23,.36,2.02Z"/></g></svg>